Coordinates
version=1
nRows=44
nColumns=19
inDegrees=yes

Units are S.I. units (second, meters, Newtons, ...)
Angles are in degrees.

endheader
time	1_Force_X	1_Force_Y	1_Force_Z	1_Moment_X	1_Moment_Y	1_Moment_Z	1_COP_X	1_COP_Y	1_COP_Z	2_Force_X	2_Force_Y	2_Force_Z	2_Moment_X	2_Moment_Y	2_Moment_Z	2_COP_X	2_COP_Y	2_COP_Z
0.0075	19.802	1.158	4.224	-0.098	0.000	0.346	-4.912	3.437	-2.370	-0.214	0.000	0.250	0.00000	-18.54461	0.00000	0.00000	11.14339	0.00000
0.0100	19.624	0.465	3.962	-0.123	0.000	0.358	-4.870	2.921	-2.153	-0.213	0.000	0.251	0.00000	-50.95380	0.00000	0.00000	12.81083	0.00000
0.0125	20.105	0.979	4.047	-0.078	0.000	0.331	-4.652	2.063	-2.066	-0.213	0.000	0.253	0.00000	-25.45878	0.00000	0.00000	16.12538	0.00000
0.0150	19.844	1.157	4.313	-0.081	0.000	0.335	-4.826	2.236	-2.111	-0.213	0.000	0.252	0.00000	-20.08159	0.00000	0.00000	15.60835	0.00000
0.0175	19.757	-0.580	4.228	-0.129	0.000	0.378	-4.740	2.755	-1.847	-0.213	0.000	0.249	0.00000	48.26823	0.00000	0.00000	13.60562	0.00000
0.0200	19.671	0.471	4.141	-0.123	0.000	0.403	-4.869	2.920	-2.373	-0.213	0.000	0.250	0.00000	-39.43552	0.00000	0.00000	12.18664	0.00000
0.0225	19.714	1.165	4.272	-0.105	0.000	0.367	-4.869	3.436	-2.328	-0.212	0.000	0.249	0.00000	-16.26058	0.00000	0.00000	10.90304	0.00000
0.0250	19.712	0.816	4.051	-0.106	0.000	0.375	-4.784	2.578	-2.065	-0.210	0.000	0.253	0.00000	-24.49876	0.00000	0.00000	13.98492	0.00000
0.0275	19.533	1.339	3.964	-0.085	0.000	0.363	-4.956	3.606	-2.459	-0.214	0.000	0.249	0.00000	-13.49075	0.00000	0.00000	10.53181	0.00000
0.0300	19.760	0.994	4.449	-0.111	0.000	0.382	-4.914	3.952	-2.107	-0.215	0.000	0.249	0.00000	-18.68293	0.00000	0.00000	10.54835	0.00000
0.0325	19.932	0.289	4.093	-0.121	0.000	0.360	-4.871	2.236	-1.981	-0.212	0.000	0.251	0.00000	-86.65664	0.00000	0.00000	15.95685	0.00000
0.0350	20.018	0.289	4.226	-0.101	0.000	0.365	-4.524	2.581	-1.629	-0.214	0.000	0.249	0.00000	-87.73802	0.00000	0.00000	14.01610	0.00000
0.0375	20.021	-0.053	4.273	-0.124	0.000	0.390	-4.610	2.238	-1.804	-0.213	0.000	0.251	0.00000	443.66802	0.00000	0.00000	15.55367	0.00000
0.0400	19.761	0.651	4.452	-0.133	0.000	0.405	-5.087	3.607	-2.328	-0.214	0.000	0.249	0.00000	-26.63364	0.00000	0.00000	11.17899	0.00000
0.0425	19.712	0.994	4.141	-0.112	0.000	0.371	-4.957	3.090	-2.371	-0.213	0.000	0.251	0.00000	-19.33664	0.00000	0.00000	12.06301	0.00000
0.0450	19.845	0.472	4.229	-0.127	0.000	0.382	-4.956	3.262	-2.415	-0.214	0.000	0.250	0.00000	-44.80157	0.00000	0.00000	11.48454	0.00000
0.0475	19.890	-0.044	4.056	-0.146	0.000	0.422	-4.869	3.264	-2.328	-0.213	0.000	0.250	0.00000	415.00188	0.00000	0.00000	11.36573	0.00000
0.0500	20.107	1.335	4.182	-0.083	0.000	0.361	-4.870	3.092	-2.197	-0.213	0.000	0.250	0.00000	-14.30401	0.00000	0.00000	12.12057	0.00000
0.0525	20.193	1.336	3.918	-0.086	0.000	0.376	-4.519	3.778	-2.411	-0.216	0.000	0.249	0.00000	-12.84406	0.00000	0.00000	9.48257	0.00000
0.0550	20.457	-0.239	3.739	-0.122	0.000	0.371	-4.698	2.580	-1.717	-0.214	0.000	0.250	0.00000	113.42161	0.00000	0.00000	14.41223	0.00000
0.0575	20.412	0.288	3.916	-0.118	0.000	0.345	-4.698	2.580	-1.760	-0.215	0.000	0.250	0.00000	-94.87925	0.00000	0.00000	14.36802	0.00000
0.0600	20.721	-0.233	3.917	-0.125	0.000	0.382	-4.435	2.407	-1.979	-0.213	0.000	0.249	0.00000	111.61060	0.00000	0.00000	13.43132	0.00000
0.0625	20.542	0.632	3.782	-0.095	0.000	0.348	-4.611	2.583	-1.629	-0.213	0.000	0.250	0.00000	-39.54889	0.00000	0.00000	14.38689	0.00000
0.0650	20.584	0.287	3.740	-0.103	0.000	0.358	-4.696	2.408	-1.977	-0.213	0.000	0.252	0.00000	-90.58767	0.00000	0.00000	14.77147	0.00000
0.0675	20.764	1.332	3.827	-0.081	0.000	0.371	-4.914	3.607	-2.329	-0.212	0.000	0.248	0.00000	-13.58247	0.00000	0.00000	10.53814	0.00000
0.0700	20.589	1.683	3.916	-0.082	0.000	0.361	-5.000	3.607	-2.417	-0.213	0.000	0.247	0.00000	-9.90353	0.00000	0.00000	10.51655	0.00000
0.0725	20.983	-0.235	3.651	-0.131	0.000	0.374	-4.567	2.581	-1.803	-0.213	0.000	0.250	0.00000	114.53714	0.00000	0.00000	13.76549	0.00000
0.0750	20.938	-0.234	3.740	-0.123	0.000	0.384	-4.696	2.923	-1.933	-0.215	0.000	0.250	0.00000	110.07880	0.00000	0.00000	12.80465	0.00000
0.0775	21.069	1.681	3.605	-0.078	0.000	0.363	-4.740	4.123	-2.108	-0.215	0.000	0.246	0.00000	-9.78671	0.00000	0.00000	9.67900	0.00000
0.0800	20.804	1.682	3.783	-0.077	0.000	0.328	-4.696	3.777	-2.193	-0.215	0.000	0.250	0.00000	-11.84234	0.00000	0.00000	10.22394	0.00000
0.0825	21.023	0.460	3.650	-0.098	0.000	0.356	-4.829	2.752	-1.806	-0.214	0.000	0.248	0.00000	-55.26626	0.00000	0.00000	13.78415	0.00000
0.0850	21.111	1.156	3.648	-0.096	0.000	0.322	-4.743	2.752	-1.673	-0.214	0.000	0.249	0.00000	-21.13668	0.00000	0.00000	13.91578	0.00000
0.0875	21.244	-0.063	3.429	-0.126	0.000	0.368	-4.699	2.923	-1.716	-0.214	0.000	0.249	0.00000	425.32820	0.00000	0.00000	13.11651	0.00000
0.0900	21.379	-0.581	3.563	-0.148	0.000	0.384	-4.567	2.578	-1.892	-0.214	0.000	0.249	0.00000	47.34928	0.00000	0.00000	13.41407	0.00000
0.0925	21.291	-0.061	3.561	-0.139	0.000	0.373	-4.785	2.582	-1.805	-0.212	0.000	0.249	0.00000	426.62743	0.00000	0.00000	14.40107	0.00000
0.0950	21.332	1.161	3.563	-0.084	0.000	0.395	-4.738	3.606	-2.327	-0.214	0.000	0.248	0.00000	-14.10725	0.00000	0.00000	10.24158	0.00000
0.0975	21.419	1.163	3.386	-0.113	0.000	0.373	-4.695	2.919	-2.328	-0.212	0.000	0.250	0.00000	-15.53508	0.00000	0.00000	11.72036	0.00000
0.1000	21.420	1.164	3.652	-0.103	0.000	0.379	-4.912	3.606	-2.414	-0.214	0.000	0.249	0.00000	-15.32790	0.00000	0.00000	10.63178	0.00000
0.1025	21.598	0.986	3.606	-0.109	0.000	0.384	-4.870	3.263	-2.197	-0.214	0.000	0.249	0.00000	-18.81257	0.00000	0.00000	11.59972	0.00000
0.1050	21.376	0.469	3.477	-0.121	0.000	0.402	-4.915	3.951	-2.109	-0.214	0.000	0.247	0.00000	-40.32626	0.00000	0.00000	10.31108	0.00000
0.1075	21.421	0.819	3.830	-0.114	0.000	0.386	-5.002	3.606	-2.286	-0.213	0.000	0.247	0.00000	-23.60469	0.00000	0.00000	10.73128	0.00000
0.1100	21.773	-0.406	3.607	-0.143	0.000	0.384	-4.698	3.097	-1.716	-0.214	0.000	0.248	0.00000	66.55902	0.00000	0.00000	12.52363	0.00000
0.1125	21.640	-0.577	3.520	-0.149	0.000	0.384	-4.438	2.581	-1.542	-0.212	0.000	0.249	0.00000	48.09779	0.00000	0.00000	13.80161	0.00000
0.1150	21.463	1.169	3.698	-0.106	0.000	0.388	-4.565	3.264	-2.152	-0.212	0.000	0.249	0.00000	-14.35728	0.00000	0.00000	10.88173	0.00000
